<?xml version="1.0" encoding="UTF-8" standalone="no"?><!DOCTYPE svg PUBLIC "-//W3C//DTD SVG 1.1//EN" "http://www.w3.org/Graphics/SVG/1.1/DTD/svg11.dtd"><svg width="100%" height="100%" viewBox="0 0 1399 1400" version="1.1" xmlns="http://www.w3.org/2000/svg" xmlns:xlink="http://www.w3.org/1999/xlink" xml:space="preserve" xmlns:serif="http://www.serif.com/" style="fill-rule:evenodd;clip-rule:evenodd;stroke-linejoin:round;stroke-miterlimit:2;"><g id="g1"><path id="path1" d="M671.452,1398.85c-3.025,-0.203 -12.7,-0.846 -21.5,-1.431c-155.644,-10.339 -305.968,-74.813 -422,-180.997c-12.863,-11.771 -37.537,-36.393 -48.587,-48.484c-9.317,-10.195 -30.779,-36.431 -40.903,-50c-60.856,-81.572 -104.904,-179.513 -124.387,-276.573c-10.071,-50.169 -14.075,-90.548 -14.075,-141.927c0,-34.114 0.997,-52.188 4.549,-82.5c15.753,-134.419 70.441,-261.489 157.302,-365.5c16.818,-20.139 18.495,-21.955 41.571,-45.025c24.5,-24.491 28.916,-28.589 48.03,-44.571c89.073,-74.472 199.115,-127.047 311.5,-148.825c48.61,-9.42 86.069,-13.005 136,-13.016c34.116,-0.007 53.79,1.067 83,4.531c134.737,15.978 260.802,70.132 364.829,156.719c18.772,15.624 24.673,21.094 48.701,45.141c23.102,23.12 24.777,24.935 41.572,45.046c74.698,89.446 126.372,197.526 148.812,311.249c9.229,46.772 13.039,86.728 13.039,136.751c0,34.262 -1.008,52.53 -4.552,82.5c-15.952,134.894 -70.43,261.479 -157.299,365.5c-15.655,18.745 -18.001,21.328 -37.093,40.836c-48.272,49.325 -102.023,90.563 -159.658,122.49c-89.225,49.426 -182.224,77.596 -284.739,86.249c-16.707,1.411 -72.325,2.625 -84.112,1.837Zm68.5,-25.418c96.415,-6.019 178.462,-28.167 263,-70.995c63.581,-32.211 115.639,-69.201 165.362,-117.499c56.064,-54.457 97.017,-109.586 132.228,-178c49.929,-97.01 73.891,-196.729 73.891,-307.5c0,-110.646 -24.022,-210.616 -73.89,-307.5c-38.226,-74.267 -85.362,-135.568 -149.603,-194.561c-49.002,-45 -117.876,-89.431 -180.488,-116.436c-8.525,-3.676 -16.85,-7.276 -18.5,-7.999c-16.667,-7.303 -59.907,-21.683 -85.5,-28.436c-25.496,-6.727 -62.731,-13.2 -95,-16.516c-79.03,-8.12 -169.523,-1.858 -239,16.538c-26.1,6.91 -68.832,21.111 -85.5,28.414c-1.65,0.723 -9.975,4.323 -18.5,7.999c-44.213,19.069 -99.418,51.42 -136.5,79.991c-61.479,47.368 -114.409,103.56 -154.015,163.506c-56.529,85.558 -92.849,179.101 -106.388,274c-9.531,66.808 -9.528,134.865 0.01,202c18.403,129.545 80.454,258.532 171.492,356.483c57.356,61.711 118.448,107.796 192.903,145.516c83.288,42.195 167.003,64.984 260.5,70.915c18.543,1.176 65.225,1.221 83.5,0.08l-0.002,-0Zm-239.5,-85.477l0,-12.517l12,-0l0,-25l-12,-0l0,-25l12,-0l0,-126l175,-0l0,-275.592l-12.702,-2.776c-20.844,-4.554 -30.32,-8.435 -44.702,-18.309c-4.348,-2.984 -8.264,-5.516 -8.704,-5.625c-0.44,-0.109 -28.71,27.682 -62.822,61.757c-42.746,42.7 -61.641,62.216 -60.796,62.793c3.22,2.198 16.822,8.674 21.726,10.343c4.443,1.513 8.384,1.865 20.5,1.83c14.434,-0.041 15.328,-0.165 23.665,-3.295c9.747,-3.66 18.134,-8.411 24.929,-14.121l4.593,-3.86l17.462,17.544l-4.824,3.959c-9.06,7.435 -15.17,11.409 -23.498,15.283c-33.159,15.427 -71.96,11.82 -101.366,-9.422c-1.92,-1.387 -2.559,-0.95 -10.982,7.512l-8.943,8.985l12.971,13.001l12.972,13l-17.471,17.471l-26,-25.942l-17.024,16.936l61.483,61.507l-6.983,7.072c-3.841,3.889 -11.934,11.975 -17.984,17.969c-6.05,5.993 -34.618,34.539 -63.484,63.434l-52.484,52.538l-17.55,-17.468l61.754,-61.76l61.753,-61.759l-21.988,-22.005l-21.988,-22.004l-27.994,27.994l25.96,26.017l-17.471,17.471l-26.018,-25.959l-27.471,27.471l25.96,26.017l-17.471,17.471l-12.97,-12.94c-7.133,-7.117 -13.322,-12.616 -13.753,-12.22c-0.432,0.396 -8.089,8.023 -17.016,16.948l-16.231,16.227l-8.524,-8.48c-4.689,-4.664 -8.405,-8.84 -8.258,-9.28c0.147,-0.441 7.668,-8.223 16.714,-17.294l16.448,-16.494l-13.448,-13.476l-13.449,-13.476l17.473,-17.472l13.493,13.465l13.494,13.466l13.692,-13.78l13.693,-13.78l-26.845,-26.899l17.473,-17.472l27.016,26.96l13.459,-13.491c7.403,-7.42 13.476,-13.944 13.496,-14.499c0.02,-0.555 -9.866,-10.902 -21.967,-22.994l-22.003,-21.986l-61.995,61.989l-61.996,61.989l-17.496,-17.496l141.487,-141.486l30.759,30.746c16.917,16.911 31.227,30.747 31.801,30.747c0.573,0 4.579,-3.636 8.9,-8.081l7.857,-8.08l-13.395,-13.423l-13.396,-13.423l17.473,-17.472l27.023,26.968l8.471,-8.495c4.659,-4.672 8.48,-8.898 8.492,-9.391c0.011,-0.493 -1.531,-3.234 -3.427,-6.09c-12.589,-18.966 -18.575,-42.472 -16.504,-64.809c1.986,-21.417 10.573,-41.343 24.76,-57.451l3.74,-4.246l8.685,8.746l8.686,8.747l-4.366,5.236c-5.479,6.571 -10.511,15.581 -14.111,25.264c-2.583,6.947 -2.791,8.605 -2.832,22.5c-0.035,12.057 0.32,16.079 1.813,20.5c1.876,5.56 7.565,17.526 10.356,21.786c1.499,2.287 2.279,1.554 63.738,-59.924l62.221,-62.24l-6.248,-9.061c-11.303,-16.393 -15.503,-27.019 -20.478,-51.811l-1.154,-5.75l-375.859,0l0,174l-99,0l0,-23.976l74.5,-0.524l0.265,-31.25l0.264,-31.25l-75.029,0l0,-25l75,0l0,-61.976l-75.5,-0.524l-0.561,-24.5l76.061,0l0,-63l-76,0l0,-25l76.029,0l-0.264,-31.25l-0.265,-31.25l-75.5,-0.524l0,-23.976l100,0l0,175l375.592,0l2.776,-12.702c4.603,-21.071 8.37,-30.182 18.762,-45.389c3.229,-4.725 5.87,-8.931 5.87,-9.347c0,-0.416 -35.535,-36.278 -78.966,-79.693l-78.966,-78.936l-2.688,4.258c-3.233,5.12 -7.025,13.487 -9.205,20.309c-2.33,7.29 -2.182,33.084 0.23,40c3.272,9.379 9.899,21.693 14.708,27.329l4.801,5.627l-8.406,8.35c-6.169,6.127 -8.802,8.129 -9.89,7.52c-0.815,-0.457 -3.745,-3.65 -6.511,-7.096c-21.491,-26.779 -27.537,-64.786 -15.445,-97.102c2.694,-7.202 8.296,-17.805 12.005,-22.723c1.283,-1.702 2.333,-3.432 2.333,-3.845c0,-1.138 -17.61,-18.56 -18.76,-18.56c-0.551,0 -22.639,21.834 -49.085,48.52l-48.084,48.52l-70.475,-70.77l-70.476,-70.77l8.168,-8.25c4.493,-4.538 8.628,-8.25 9.19,-8.25c0.562,0.001 25.615,24.638 55.673,54.75c30.057,30.112 57.625,57.667 61.262,61.233l6.612,6.483l39.487,-39.478c21.719,-21.714 39.488,-39.818 39.488,-40.233c0,-0.414 -2.478,-3.332 -5.506,-6.484l-5.507,-5.731l-13.497,13.469l-13.496,13.47l-17.473,-17.473l13.459,-13.486l13.459,-13.487l-5.691,-5.425l-5.691,-5.424l-6.866,3.425c-17.508,8.733 -39.569,7.897 -56.919,-2.16c-7.819,-4.531 -18.284,-15.904 -22.497,-24.449c-11.867,-24.065 -7.631,-50.265 11.165,-69.061c18.84,-18.84 44.566,-22.985 69.06,-11.126c10.435,5.052 21.406,16.004 26.292,26.247c5.137,10.77 6.101,15.132 6.065,27.44c-0.034,11.477 -1.949,19.612 -6.431,27.307c-1.059,1.819 -1.926,3.648 -1.926,4.066c0,1.052 9.648,11.127 10.655,11.127c0.45,0 6.563,-5.733 13.585,-12.74l12.768,-12.739l8.735,8.736l8.736,8.735l-12.739,12.768c-7.007,7.022 -12.74,13.07 -12.74,13.439c0,0.37 2.565,3.196 5.7,6.282l5.7,5.609l79.406,-79.386l-61.403,-61.354c-33.772,-33.745 -61.403,-61.701 -61.403,-62.124c0,-0.424 3.791,-4.541 8.423,-9.15l8.423,-8.379l141.292,141.27l-48.753,48.325l-48.752,48.325l9.714,9.603l9.713,9.604l5.22,-3.557c8.051,-5.486 22.279,-11.839 32.22,-14.387c7.444,-1.908 11.594,-2.306 24,-2.303c13.195,0.003 16.178,0.328 24.784,2.698c16.243,4.474 30.772,12.204 41.465,22.061l4.273,3.938l-8.261,8.338c-4.543,4.586 -8.642,8.349 -9.107,8.363c-0.466,0.014 -2.933,-1.812 -5.484,-4.057c-5.54,-4.876 -14.163,-9.826 -23.694,-13.601c-6.653,-2.634 -7.762,-2.762 -23.976,-2.762c-15.957,0 -17.4,0.159 -23.535,2.597c-7.307,2.903 -15.507,6.969 -18.328,9.088c-1.726,1.296 4.003,7.265 77.365,80.61l79.229,79.21l8.635,-5.901c15.254,-10.424 24.345,-14.185 45.432,-18.792l12.702,-2.775l0,-225.592l-39.061,0l0.561,-24.5l38.5,-0.544l0,-24.956l-38,0l0,-25l38,0l0,-25l-38,0l0,-25l38,0l0,-25l-88,0l0,-100l25,0l0,75l63,0l0,-75l25,0l0,75l62,0l0,-75l25,0l0,100l-87,0l0,25l37,0l0,25l-37,0l0,25l37,0l0,25l-37,0l0,25l36,0l0,25l-36,0l0,225.858l5.75,1.154c24.789,4.975 35.42,9.176 51.804,20.473l9.053,6.243l72.821,-72.773l72.822,-72.772l-5.375,-3.094c-2.956,-1.702 -8.975,-4.541 -13.375,-6.309c-7.885,-3.168 -8.236,-3.214 -24.5,-3.203c-15.629,0.011 -16.869,0.157 -23.5,2.765c-9.522,3.745 -19.028,9.079 -24.823,13.93l-4.824,4.037l-8.426,-8.383c-4.635,-4.61 -8.427,-8.67 -8.427,-9.021c0,-1.799 16.762,-13.586 25.5,-17.933c15.154,-7.537 26.765,-10.253 44,-10.292c11.074,-0.025 15.841,0.422 22.807,2.139c11.114,2.739 21.341,6.982 30.626,12.706c3.991,2.461 7.554,4.475 7.916,4.475c0.363,0 3.563,-2.942 7.112,-6.538l6.452,-6.537l-29.326,-29.339l-29.326,-29.338l8.658,-8.639c7.036,-7.02 8.979,-8.458 10.37,-7.678c0.941,0.529 5.063,4.473 9.159,8.765c15.106,15.827 47.109,48.304 47.599,48.304c0.944,0 7.453,-6.316 7.453,-7.231c0,-0.5 -1.394,-2.936 -3.098,-5.412c-4.326,-6.289 -10.533,-20.053 -12.91,-28.631c-1.101,-3.972 -2.525,-11.947 -3.166,-17.724c-0.987,-8.902 -0.91,-12.265 0.503,-22.072c1.519,-10.54 5.56,-25.219 7.467,-27.126c0.424,-0.424 4.933,3.429 10.02,8.562c9.078,9.16 9.226,9.387 8.013,12.233c-0.819,1.923 -1.224,8.46 -1.201,19.401c0.032,15.573 0.188,16.893 2.774,23.5c1.507,3.85 4.323,9.844 6.258,13.32l3.517,6.321l22.39,-22.321c12.315,-12.276 22.4,-22.768 22.412,-23.314c0.012,-0.547 -13.785,-14.806 -30.659,-31.687l-30.681,-30.693l35.269,-35.063c19.399,-19.285 35.578,-35.063 35.953,-35.063c0.376,0 4.449,3.784 9.05,8.41l8.367,8.411l-26.751,26.718l-26.752,26.718l21.854,21.871c12.02,12.03 22.308,21.861 22.863,21.849c0.555,-0.012 12.687,-11.712 26.961,-26c14.273,-14.288 26.208,-25.977 26.522,-25.977c0.313,0 4.383,3.833 9.044,8.519l8.475,8.518l-26.765,26.711l-26.765,26.71l44.032,44.032l53.004,-52.976l8.746,8.745l8.746,8.746l-35.244,35.243l-35.243,35.244l-30.761,-30.749l-30.76,-30.748l-22.776,22.752l-22.775,22.753l2.784,2.245c4.443,3.583 20.2,10.045 27.283,11.19c8.988,1.451 22.246,1.291 30,-0.364l6.5,-1.387l9.291,9.377l9.291,9.378l-3.791,1.619c-6.523,2.787 -21.432,6.177 -30.291,6.888c-9.762,0.783 -23.08,-0.598 -34,-3.526c-8.977,-2.408 -23.751,-9.399 -30.043,-14.217l-4.543,-3.479l-8.614,8.035l8.442,8.62c4.644,4.741 14.026,14.31 20.851,21.265c11.829,12.054 15.339,15.735 26.238,27.515l4.774,5.16l-7.763,8.09c-4.27,4.45 -8.303,8.091 -8.962,8.091c-1.047,0 -16.914,-16.098 -50.76,-51.5l-9.561,-10l-6.529,6.471c-3.591,3.559 -6.53,6.82 -6.53,7.247c0,0.428 1.524,2.916 3.386,5.529c6.882,9.661 12.812,23.865 15.76,37.753c1.641,7.73 1.641,29.269 0,37c-3.438,16.193 -10.355,31.185 -20.185,43.75c-3.334,4.262 -6.387,7.75 -6.784,7.75c-0.396,0 -4.475,-3.774 -9.064,-8.387l-8.342,-8.386l5.154,-6.725c5.575,-7.273 8.864,-13.248 12.921,-23.467c2.424,-6.105 2.594,-7.621 2.594,-23.035c0,-15.415 -0.17,-16.93 -2.594,-23.036c-3.3,-8.312 -7.115,-15.848 -9.491,-18.747l-1.855,-2.263l-72.5,72.56c-39.875,39.908 -72.41,72.924 -72.301,73.368c0.109,0.445 2.64,4.366 5.625,8.713c9.874,14.383 13.755,23.858 18.309,44.703l2.775,12.702l149.592,0l-0.017,-2.25c-0.023,-3.101 -5.925,-17.383 -10.066,-24.358c-4.546,-7.659 -17.045,-19.988 -25.001,-24.661c-10.487,-6.161 -21.035,-9.767 -30.531,-10.437l-8.385,-0.591l0,-24.874l7.75,0.704c45.255,4.113 81.541,36.564 90.257,80.717l1.135,5.75l25.858,0l0,-38l25,0l0,38.059l12.68,-0.279l12.679,-0.28l1.625,-7.5c8.984,-41.47 42.618,-72.19 85.339,-77.946c12.883,-1.736 11.677,-2.918 11.677,11.446l0,12.5l-4.363,0c-6.403,0 -13.807,1.605 -21.415,4.643c-24.054,9.605 -41.725,29.874 -47.606,54.607l-0.654,2.75l100.038,0l0,-88l100,0l0,25l-76,0l0,63l76,0l0,25l-76,0l0,62l75,0l0,25l-99,0l0,-87l-100.09,0l0.69,3.681c0.38,2.024 1.73,6.331 2.999,9.57c10.803,27.567 35.51,47.126 62.356,49.365l8.045,0.671l0,24.916l-7.25,-0.677c-44.675,-4.171 -80.98,-35.948 -89.716,-78.526l-1.743,-8.5l-12.646,-0.28l-12.645,-0.28l0,37.06l-25,0l0,-37l-25.739,0l-1.183,6.25c-8.361,44.197 -45.183,77.341 -90.328,81.304l-7.75,0.681l0,-24.94l8.581,-0.66c9.523,-0.732 18.725,-3.838 29.922,-10.1c8.018,-4.484 20.499,-16.746 25.415,-24.968c4.398,-7.358 10.044,-21.277 10.066,-24.817l0.017,-2.75l-149.859,0l-1.154,5.75c-4.818,24.01 -9.18,35.313 -19.378,50.215c-2.81,4.106 -5.453,8.014 -5.873,8.685c-0.503,0.804 26.195,28.17 78.325,80.285c43.499,43.485 79.386,79.065 79.75,79.065c0.363,0 6.406,-5.733 13.428,-12.74l12.768,-12.739l17.471,17.471l-12.913,12.942c-11.761,11.787 -12.786,13.1 -11.489,14.717c0.783,0.976 4.78,5.066 8.882,9.089l7.459,7.315l12.729,-12.702c10.322,-10.298 12.996,-12.48 14.138,-11.533c2.078,1.725 12.989,12.596 14.639,14.587c1.287,1.551 0.194,2.949 -11.376,14.545l-12.799,12.828l7.41,7.36c4.076,4.048 8.21,8 9.188,8.783c1.619,1.298 2.912,0.292 14.526,-11.296l12.749,-12.72l8.321,8.416c4.577,4.629 8.309,8.746 8.294,9.149c-0.015,0.403 -5.521,6.337 -12.235,13.188c-14.05,14.335 -13.865,11.446 -1.501,23.463l7,6.805l30.706,-30.665l30.707,-30.664l5.793,5.45c3.187,2.998 19.063,18.841 35.281,35.206l29.487,29.756l-17.47,17.47l-25.937,-25.991c-14.265,-14.294 -26.363,-25.99 -26.884,-25.99c-0.521,0 -10.685,9.55 -22.588,21.222l-21.64,21.222l18.621,18.753c20.952,21.1 20.67,20.985 21.93,8.956c0.927,-8.854 -2.172,-20.079 -7.095,-25.702c-1.179,-1.346 -0.203,-2.696 7.468,-10.331l8.824,-8.783l3.187,4.024c4.064,5.131 9.56,17.095 10.997,23.938c2.654,12.638 0.715,28.024 -4.972,39.461c-4.156,8.358 -18.142,22.311 -26.69,26.626c-19.878,10.034 -44.408,7.744 -63.105,-5.892l-4.379,-3.195l8.831,-8.872c7.819,-7.855 9.012,-8.709 10.406,-7.446c2.839,2.568 12.766,6.583 17.735,7.171c4.841,0.573 14.473,-0.885 17.232,-2.609c1.118,-0.698 -2.81,-5.141 -17.349,-19.621l-18.795,-18.718l-44.945,44.945l53.632,53.318l-8.477,8.522c-4.663,4.687 -8.816,8.407 -9.229,8.266c-0.413,-0.14 -16.513,-15.996 -35.779,-35.235l-35.03,-34.98l30.476,-30.52c16.762,-16.786 30.778,-30.843 31.147,-31.237c0.632,-0.675 -15.827,-17.783 -17.108,-17.783c-0.329,0 -6.749,6.077 -14.267,13.504l-13.67,13.505l-8.276,-8.233c-4.551,-4.528 -8.275,-8.686 -8.275,-9.241c0,-0.555 5.912,-6.933 13.139,-14.175l13.139,-13.166l-8.539,-8.597c-4.697,-4.729 -8.916,-8.597 -9.376,-8.597c-0.46,0 -6.807,5.957 -14.103,13.239l-13.267,13.24l-17.472,-17.473l13.239,-13.266c7.282,-7.297 13.24,-13.639 13.24,-14.094c0,-0.455 -3.854,-4.69 -8.564,-9.41l-8.563,-8.582l-13.44,13.412l-13.44,13.413l-17.472,-17.473l13.391,-13.418l13.391,-13.419l-79.061,-79.085c-43.484,-43.496 -79.399,-79.084 -79.811,-79.084c-0.413,0 -4.616,2.641 -9.341,5.869c-16.081,10.986 -26.835,15.2 -51.34,20.118l-5.75,1.154l0,275.859l175,0l0,125.904l12.15,0.596l0,24l-6.075,0.297l-6.075,0.298l0,24.905l11.82,0l0.676,8.25c0.372,4.537 0.525,10.05 0.34,12.25l-0.336,4l-24.75,0.267l-24.75,0.268l0,-25.035l12,0l0,-25l-12,0l0,-25l12,0l0,-101l-19.073,0l0.573,19.5l12,0l0.28,12.25l0.281,12.25l-13.121,0l0.56,25.5l12,0.062l0.28,12.218l0.281,12.219l-50.061,0l0,-24.5l11.503,0l0.56,-25.5l-12.059,0l0,-24.575l11.5,0.076l0.572,-19.5l-106.072,0l0,25l87.746,0l-0.123,49.996l-0.123,49.997l-24.5,0l0,-74.993l-63,0l0,42l12,0l0,25l-12,0l0,25l12,0l0,25.035l-24.75,-0.268l-24.75,-0.267l-0.562,-24.5l13.062,0l0,-24.905l-12.5,-0.595l-0.562,-24.5l13.062,0l0,-42l-63,0l0,75l-24,0l0,-100l87,0l0,-25l-106,0l0,16.904l12.096,0.596l0.202,12.251l0.202,12.25l-6.25,0l-6.25,-0.001l0,25l6,0c3.3,0 6.01,0.337 6.023,0.75c0.013,0.412 0.125,6.038 0.25,12.501l0.227,11.75l-49.5,-0.001l0,-25l12,0l0,-25l-12.062,0l0.562,-24.5l11.5,-0.6l0,-16.9l-19,0l0,101l13.061,0l-0.281,12.25l-0.28,12.25l-12.5,0.595l0,24.905l12.83,0l-0.33,24.5l-24.75,0.267l-24.75,0.268l-0.005,-12.518Zm216.492,-490.044c20.376,-3.553 37.764,-12.729 53.008,-27.973c19.384,-19.384 29.5,-43.561 29.5,-70.5c-0,-26.57 -10.003,-50.733 -29,-70.049c-32.788,-33.34 -82.43,-39.52 -123.242,-15.343c-11.099,6.575 -26.484,21.975 -33.15,33.182c-15.958,26.831 -18.962,58.735 -8.223,87.325c5.26,14.005 11.788,23.987 23.115,35.352c11.333,11.369 21.204,17.821 35.457,23.175c16.405,6.162 35.064,7.878 52.535,4.831Zm-389.813,-447.674c1.827,-0.661 3.321,-1.575 3.321,-2.032c-0,-1.124 -44.587,-45.767 -45.71,-45.767c-1.695,-0 -3.29,6.68 -3.29,13.783c-0,9.571 2.742,16.679 9.131,23.67c7.235,7.916 14.954,11.423 25.298,11.493c4.361,0.029 9.424,-0.487 11.25,-1.147Zm22.796,-22.75c0.995,-1.925 1.525,-5.737 1.525,-10.971c-0,-9.887 -2.698,-16.703 -9.481,-23.955c-6.853,-7.326 -14.015,-10.521 -24.519,-10.937c-5.779,-0.228 -9.565,0.118 -11.829,1.082l-3.329,1.418l22.829,23.041c12.556,12.673 22.93,23.094 23.054,23.157c0.123,0.064 0.911,-1.212 1.75,-2.835Zm563.5,224.701c-10.38,-7.033 -5.14,-24.084 7.402,-24.084c8.75,-0 14.345,6.237 13.369,14.9c-0.444,3.939 -1.231,5.49 -4.132,8.149c-3.025,2.772 -4.344,3.285 -8.451,3.285c-3.396,-0 -5.87,-0.68 -8.188,-2.25Zm-61.081,-61.247c-5.105,-2.775 -7.59,-9.205 -5.933,-15.356c2.82,-10.473 15.612,-12.954 23.059,-4.473c2.952,3.363 3.166,4.075 2.745,9.151c-0.396,4.774 -0.939,5.946 -4.096,8.839c-3.082,2.825 -4.368,3.33 -8.404,3.296c-2.62,-0.022 -5.938,-0.678 -7.371,-1.457Z" style="fill:#e6e678;fill-rule:nonzero;"/></g></svg>